<?xml version="1.0" encoding="UTF-8"?><svg xmlns="http://www.w3.org/2000/svg" width="27" height="16"><path fill="#D3E3F4" d="M0 0h11.876v16h-11.876v-16z"/><path fill="#E9E9E9" d="M12.819 0v15.969h10.755c1.085-2.578 1.837-4.991 3.062-8.591l-3.062-7.378h-10.755z"/><path fill="#434343" d="M14.828 4.146c.32.023.639.035.951.035.471 0 .922-.016 1.354-.046l.023-.258.034-.367.081-.711.033-.333.873.058c-.073.577-.133 1.091-.179 1.542 1.116-.119 2.233-.331 3.349-.637l.092.809c-1.078.271-2.251.472-3.521.602-.05.463-.082.968-.098 1.514.524-.187 1.14-.313 1.847-.378.064-.207.136-.461.213-.763l.865.201c-.027.123-.088.315-.184.579.814.104 1.461.34 1.938.711.681.542 1.021 1.252 1.021 2.128 0 .963-.406 1.746-1.221 2.351-.635.47-1.505.784-2.609.94l-.505-.779c.968-.104 1.739-.337 2.317-.7.733-.458 1.101-1.066 1.101-1.823 0-.772-.341-1.363-1.021-1.772-.345-.21-.764-.344-1.256-.401-.604 1.422-1.4 2.598-2.387 3.527.035.352.102.715.201 1.09l-.849.314-.126-.773c-.654.462-1.27.693-1.847.693-.696 0-1.044-.407-1.044-1.222 0-1.104.591-2.103 1.771-2.993.227-.165.532-.352.918-.562.012-.524.046-1.128.104-1.812-.585.046-1.143.069-1.675.069l-.493-.011-.071-.822m2.127 3.384c-.268.161-.545.392-.831.694-.612.619-.94 1.226-.986 1.817l-.017.121.017.138c0 .252.112.378.339.378.492 0 1.02-.258 1.582-.773-.057-.613-.092-1.404-.104-2.375m2.455-.884c-.57.08-1.111.226-1.623.436 0 .883.018 1.581.052 2.093.634-.707 1.158-1.55 1.571-2.529"/><path fill="#1A1A1A" d="M8.517 11.735l-.734-2.409h-3.69l-.734 2.409h-2.313l3.573-10.165h2.625l3.587 10.165h-2.314m-1.246-4.21c-.679-2.183-1.062-3.418-1.149-3.704-.083-.286-.143-.512-.18-.678-.153.59-.589 2.051-1.309 4.382h2.638"/><path fill="#BCBCBC" d="M12.817 13.5v2.5h10.757l.98-2.5h-11.737z"/><path fill="#3692D0" d="M.011 13.511h3.569l2.367-3.116 2.367 3.116h3.57v2.484h-11.873v-2.484z"/></svg>